<?xml version="1.0" encoding="UTF-8" standalone="no"?>
<!DOCTYPE svg PUBLIC "-//W3C//DTD SVG 1.1//EN" "http://www.w3.org/Graphics/SVG/1.1/DTD/svg11.dtd">
<svg width="100%" height="100%" viewBox="0 0 220 206" version="1.1" xmlns="http://www.w3.org/2000/svg" xmlns:xlink="http://www.w3.org/1999/xlink" xml:space="preserve" xmlns:serif="http://www.serif.com/" style="fill-rule:evenodd;clip-rule:evenodd;stroke-linejoin:round;stroke-miterlimit:2;">
    <g transform="matrix(1,0,0,1,6.56745,-7.51698)">
        <g transform="matrix(0.952953,0,0,0.952953,-226.977,-289.123)">
            <g transform="matrix(0.442142,0,0,0.442142,-121.735,117.745)">
                <g transform="matrix(0.773542,0,0,0.980098,5.29662,-19.29)">
                    <path d="M1551.22,613.155C1551.22,607.944 1545.86,603.713 1539.26,603.713L1495.29,603.713C1488.68,603.713 1483.32,607.944 1483.32,613.155C1483.32,618.366 1488.68,622.597 1495.29,622.597L1539.26,622.597C1545.86,622.597 1551.22,618.366 1551.22,613.155Z" style="fill:rgb(128,128,128);"/>
                </g>
                <g transform="matrix(0.773542,0,0,0.980098,65.0052,-19.29)">
                    <path d="M1551.22,613.155C1551.22,607.944 1545.86,603.713 1539.26,603.713L1495.29,603.713C1488.68,603.713 1483.32,607.944 1483.32,613.155C1483.32,618.366 1488.68,622.597 1495.29,622.597L1539.26,622.597C1545.86,622.597 1551.22,618.366 1551.22,613.155Z" style="fill:rgb(128,128,128);"/>
                    <g>
                        <g>
                            <g>
                                <g>
                                    <clipPath id="_clip1">
                                        <path d="M1551.22,613.155C1551.22,607.944 1545.86,603.713 1539.26,603.713L1495.29,603.713C1488.68,603.713 1483.32,607.944 1483.32,613.155C1483.32,618.366 1488.68,622.597 1495.29,622.597L1539.26,622.597C1545.86,622.597 1551.22,618.366 1551.22,613.155Z"/>
                                    </clipPath>
                                    <g clip-path="url(#_clip1)">
                                        <g transform="matrix(-0.352687,0,0,0.278358,2357.94,162.576)">
                                            <path d="M2255.93,1652.62C2255.93,1652.62 2277.89,1606.41 2357.83,1594.64C2437.77,1582.86 2306.25,1560.02 2306.25,1560.02C2306.25,1560.02 2239.24,1623.99 2255.93,1652.62Z" style="fill:rgb(128,128,128);"/>
                                        </g>
                                    </g>
                                </g>
                            </g>
                        </g>
                    </g>
                </g>
                <g transform="matrix(1,0,0,1,-339.958,-27.3948)">
                    <path d="M1399.64,491.853C1398.58,492.466 1397.82,493.492 1397.54,494.686C1397.27,495.88 1397.49,497.136 1398.18,498.155C1399.53,500.177 1401.17,502.618 1402.47,504.565C1403.77,506.503 1406.35,507.102 1408.37,505.936C1415.46,501.839 1431.45,492.609 1441.29,486.927C1443.43,485.69 1444.97,483.621 1445.53,481.212C1446.09,478.803 1445.62,476.269 1444.25,474.214L1444.25,474.212C1442.04,470.92 1437.66,469.902 1434.23,471.883C1424.96,477.237 1407.55,487.286 1399.64,491.853Z" style="fill:rgb(128,128,128);"/>
                    <g>
                        <g>
                            <g>
                                <g>
                                    <clipPath id="_clip2">
                                        <path d="M1399.64,491.853C1398.58,492.466 1397.82,493.492 1397.54,494.686C1397.27,495.88 1397.49,497.136 1398.18,498.155C1399.53,500.177 1401.17,502.618 1402.47,504.565C1403.77,506.503 1406.35,507.102 1408.37,505.936C1415.46,501.839 1431.45,492.609 1441.29,486.927C1443.43,485.69 1444.97,483.621 1445.53,481.212C1446.09,478.803 1445.62,476.269 1444.25,474.214L1444.25,474.212C1442.04,470.92 1437.66,469.902 1434.23,471.883C1424.96,477.237 1407.55,487.286 1399.64,491.853Z"/>
                                    </clipPath>
                                    <g clip-path="url(#_clip2)">
                                        <g transform="matrix(1,0,0,1,-1114.85,-982.061)">
                                            <path d="M2556.38,1447.19C2556.38,1447.19 2544.77,1474.06 2524.1,1492.48C2503.42,1510.9 2573.27,1464.46 2573.27,1464.46L2556.38,1447.19" style="fill:rgb(166,166,166);"/>
                                        </g>
                                    </g>
                                </g>
                            </g>
                        </g>
                    </g>
                </g>
                <g transform="matrix(1,0,0,1,-336.635,-35.4157)">
                    <path d="M1161.27,637.133C1168.03,628.3 1178.68,622.597 1190.65,622.597L1221.4,622.597L1403.86,517.254C1406.45,515.758 1407.34,512.442 1405.84,509.852L1400.42,500.468C1398.93,497.878 1395.61,496.989 1393.02,498.484L1163.74,630.859C1161.52,632.144 1160.55,634.775 1161.27,637.133Z" style="fill:rgb(89,89,89);"/>
                </g>
                <g transform="matrix(0.617527,0,0,0.393475,134.178,444.738)">
                    <path d="M1920,450.928C1920,399.049 1893.16,356.929 1860.11,356.929L1160.83,356.929C1127.77,356.929 1100.93,399.049 1100.93,450.928L1100.93,986.001C1100.93,1037.88 1127.77,1080 1160.83,1080L1860.11,1080C1893.16,1080 1920,1037.88 1920,986.001L1920,450.928Z" style="fill:rgb(75,75,75);"/>
                    <g>
                        <g>
                            <g>
                                <g>
                                    <clipPath id="_clip3">
                                        <path d="M1920,450.928C1920,399.049 1893.16,356.929 1860.11,356.929L1160.83,356.929C1127.77,356.929 1100.93,399.049 1100.93,450.928L1100.93,986.001C1100.93,1037.88 1127.77,1080 1160.83,1080L1860.11,1080C1893.16,1080 1920,1037.88 1920,986.001L1920,450.928Z"/>
                                    </clipPath>
                                    <g clip-path="url(#_clip3)">
                                        <g transform="matrix(1.61936,0,0,2.54146,-2573.15,-3695.77)">
                                            <path d="M2255.93,1652.62C2255.93,1652.62 2277.89,1606.41 2357.83,1594.64C2437.77,1582.86 2306.25,1560.02 2306.25,1560.02C2306.25,1560.02 2239.24,1623.99 2255.93,1652.62Z" style="fill:rgb(63,63,63);"/>
                                        </g>
                                        <g transform="matrix(1.61936,0,0,2.54146,-767.276,-1225.37)">
                                            <path d="M1153.67,831.057C1153.67,831.057 1196.48,889.809 1406.57,889.809C1616.66,889.809 1659.47,831.057 1659.47,831.057L1659.47,907.107L1153.67,907.107L1153.67,831.057Z" style="fill:rgb(63,63,63);"/>
                                        </g>
                                    </g>
                                </g>
                            </g>
                        </g>
                    </g>
                </g>
                <g transform="matrix(1,0,0,1,-357.032,-29.7183)">
                    <circle cx="1292.74" cy="757.155" r="84.27" style="fill:rgb(89,89,89);"/>
                </g>
                <g transform="matrix(1,0,0,1,-323.137,-37.4157)">
                    <path d="M1561.05,723.295C1561.05,717.39 1556.27,712.603 1550.36,712.603L1464.2,712.603C1458.29,712.603 1453.51,717.39 1453.51,723.295L1453.51,723.298C1453.51,729.203 1458.29,733.99 1464.2,733.99L1550.36,733.99C1556.27,733.99 1561.05,729.203 1561.05,723.298L1561.05,723.295Z" style="fill:rgb(89,89,89);"/>
                </g>
            </g>
            <g transform="matrix(0.331449,0,0,0.331449,-122.504,189.998)">
                <g transform="matrix(1,0,0,1,-37.5601,-2.94655)">
                    <circle cx="1292.74" cy="757.155" r="84.27" style="fill:rgb(166,166,166);"/>
                </g>
                <g transform="matrix(0.555898,0,0,0.555898,536.55,333.308)">
                    <path d="M1369.69,722.929C1374.42,733.366 1377.01,744.96 1377.01,757.155C1377.01,803.665 1339.25,841.425 1292.74,841.425C1246.23,841.425 1208.47,803.665 1208.47,757.155C1208.47,710.645 1246.23,672.885 1292.74,672.885C1304.94,672.885 1316.53,675.481 1326.97,680.204L1305.61,744.291L1369.69,722.929Z" style="fill:rgb(128,128,128);"/>
                </g>
                <g transform="matrix(1,0,0,1,303.222,-2.94655)">
                    <circle cx="1292.74" cy="757.155" r="84.27" style="fill:rgb(166,166,166);"/>
                </g>
                <g transform="matrix(0.555898,0,0,0.555898,877.332,333.308)">
                    <path d="M1369.69,722.929C1374.42,733.366 1377.01,744.96 1377.01,757.155C1377.01,803.665 1339.25,841.425 1292.74,841.425C1246.23,841.425 1208.47,803.665 1208.47,757.155C1208.47,710.645 1246.23,672.885 1292.74,672.885C1304.94,672.885 1316.53,675.481 1326.97,680.204L1305.61,744.291L1369.69,722.929Z" style="fill:rgb(128,128,128);"/>
                </g>
            </g>
            <g transform="matrix(1,0,0,1,21.2913,-65.0019)">
                <circle cx="329.259" cy="526.435" r="15.916" style="fill:rgb(166,166,166);"/>
            </g>
            <g transform="matrix(0.430751,0,0,0.430751,-255.332,98.9884)">
                <g transform="matrix(1,0,0,1,-1070.88,0)">
                    <path d="M2446.68,861.865C2442.77,856.013 2440.5,848.983 2440.5,841.425C2440.5,837.999 2440.96,834.681 2441.84,831.534L2462.98,836.042C2472.53,838.079 2482.41,838.078 2491.96,836.038L2513.05,831.536C2513.93,834.685 2514.4,838.001 2514.4,841.425C2514.4,848.983 2512.12,856.013 2508.21,861.865C2500.53,857.11 2489.59,854.154 2477.45,854.154C2465.31,854.154 2454.36,857.11 2446.68,861.865Z" style="fill:rgb(166,166,166);"/>
                </g>
                <g transform="matrix(1,0,0,1,-1070.88,0)">
                    <path d="M2446.68,861.865C2454.36,857.11 2465.31,854.154 2477.45,854.154C2489.59,854.154 2500.53,857.11 2508.21,861.865C2501.6,871.816 2490.28,878.375 2477.45,878.375C2464.61,878.375 2453.3,871.816 2446.68,861.865Z" style="fill:rgb(128,128,128);"/>
                    <g>
                        <clipPath id="_clip4">
                            <path d="M2446.68,861.865C2454.36,857.11 2465.31,854.154 2477.45,854.154C2489.59,854.154 2500.53,857.11 2508.21,861.865C2501.6,871.816 2490.28,878.375 2477.45,878.375C2464.61,878.375 2453.3,871.816 2446.68,861.865Z"/>
                        </clipPath>
                        <g clip-path="url(#_clip4)">
                            <g transform="matrix(1.54897,0,0,1.54897,-1427.04,-1837.09)">
                                <path d="M2484.86,1761.87C2484.86,1761.87 2496.86,1746.3 2524.74,1747.26C2552.63,1748.22 2556.32,1766.18 2560.89,1758.51C2565.46,1750.83 2560.89,1827.55 2560.89,1827.55L2465.61,1827.55L2484.86,1761.87Z" style="fill:rgb(15,1,0);fill-opacity:0.11;"/>
                            </g>
                        </g>
                    </g>
                </g>
            </g>
        </g>
    </g>
</svg>
